<?xml version="1.0" encoding="UTF-8" standalone="no"?>
<!DOCTYPE svg PUBLIC "-//W3C//DTD SVG 1.1//EN"
 "http://www.w3.org/Graphics/SVG/1.1/DTD/svg11.dtd">
<!-- Generated by graphviz version 14.1.4 (20260321.0153)
 -->
<!-- Title: datoms_and_live_after_retract Pages: 1 -->
<svg width="513pt" height="266pt"
 viewBox="0.00 0.00 513.00 266.00" xmlns="http://www.w3.org/2000/svg" xmlns:xlink="http://www.w3.org/1999/xlink">
<g id="graph0" class="graph" transform="scale(1 1) rotate(0) translate(4 262)">
<title>datoms_and_live_after_retract</title>
<polygon fill="white" stroke="none" points="-4,4 -4,-262 508.75,-262 508.75,4 -4,4"/>
<!-- log -->
<g id="node1" class="node">
<title>log</title>
<polygon fill="none" stroke="black" points="8,-229 8,-254 274.5,-254 274.5,-229 8,-229"/>
<text xml:space="preserve" text-anchor="start" x="131.12" y="-236.7" font-family="Helvetica,sans-Serif" font-weight="bold" font-size="14.00">log</text>
<polygon fill="none" stroke="black" points="8,-204 8,-229 37.5,-229 37.5,-204 8,-204"/>
<text xml:space="preserve" text-anchor="start" x="13" y="-211.7" font-family="Helvetica,sans-Serif" font-weight="bold" font-size="14.00">eid</text>
<polygon fill="none" stroke="black" points="37.5,-204 37.5,-229 151.75,-229 151.75,-204 37.5,-204"/>
<text xml:space="preserve" text-anchor="start" x="83.75" y="-211.7" font-family="Helvetica,sans-Serif" font-weight="bold" font-size="14.00">attr</text>
<polygon fill="none" stroke="black" points="151.75,-204 151.75,-229 248,-229 248,-204 151.75,-204"/>
<text xml:space="preserve" text-anchor="start" x="182.62" y="-211.7" font-family="Helvetica,sans-Serif" font-weight="bold" font-size="14.00">value</text>
<polygon fill="none" stroke="black" points="248,-204 248,-229 274.5,-229 274.5,-204 248,-204"/>
<text xml:space="preserve" text-anchor="start" x="253" y="-211.7" font-family="Helvetica,sans-Serif" font-weight="bold" font-size="14.00">op</text>
<polygon fill="#e6ffe6" stroke="none" points="8,-179 8,-204 37.5,-204 37.5,-179 8,-179"/>
<polygon fill="none" stroke="black" points="8,-179 8,-204 37.5,-204 37.5,-179 8,-179"/>
<text xml:space="preserve" text-anchor="start" x="13" y="-187.75" font-family="Helvetica,sans-Serif" font-size="14.00">#1</text>
<polygon fill="#e6ffe6" stroke="none" points="37.5,-179 37.5,-204 151.75,-204 151.75,-179 37.5,-179"/>
<polygon fill="none" stroke="black" points="37.5,-179 37.5,-204 151.75,-204 151.75,-179 37.5,-179"/>
<text xml:space="preserve" text-anchor="start" x="42.5" y="-187.75" font-family="Helvetica,sans-Serif" font-size="14.00">Fighter/fName</text>
<polygon fill="#e6ffe6" stroke="none" points="151.75,-179 151.75,-204 248,-204 248,-179 151.75,-179"/>
<polygon fill="none" stroke="black" points="151.75,-179 151.75,-204 248,-204 248,-179 151.75,-179"/>
<text xml:space="preserve" text-anchor="start" x="156.75" y="-187.75" font-family="Helvetica,sans-Serif" font-size="14.00">&quot;Jorge&quot;</text>
<polygon fill="#e6ffe6" stroke="none" points="248,-179 248,-204 274.5,-204 274.5,-179 248,-179"/>
<polygon fill="none" stroke="black" points="248,-179 248,-204 274.5,-204 274.5,-179 248,-179"/>
<text xml:space="preserve" text-anchor="start" x="253" y="-187.75" font-family="Helvetica,sans-Serif" font-size="14.00">+</text>
<polygon fill="#e6ffe6" stroke="none" points="8,-154 8,-179 37.5,-179 37.5,-154 8,-154"/>
<polygon fill="none" stroke="black" points="8,-154 8,-179 37.5,-179 37.5,-154 8,-154"/>
<text xml:space="preserve" text-anchor="start" x="13" y="-162.75" font-family="Helvetica,sans-Serif" font-size="14.00">#1</text>
<polygon fill="#e6ffe6" stroke="none" points="37.5,-154 37.5,-179 151.75,-179 151.75,-154 37.5,-154"/>
<polygon fill="none" stroke="black" points="37.5,-154 37.5,-179 151.75,-179 151.75,-154 37.5,-154"/>
<text xml:space="preserve" text-anchor="start" x="42.5" y="-162.75" font-family="Helvetica,sans-Serif" font-size="14.00">Fighter/lName</text>
<polygon fill="#e6ffe6" stroke="none" points="151.75,-154 151.75,-179 248,-179 248,-154 151.75,-154"/>
<polygon fill="none" stroke="black" points="151.75,-154 151.75,-179 248,-179 248,-154 151.75,-154"/>
<text xml:space="preserve" text-anchor="start" x="156.75" y="-162.75" font-family="Helvetica,sans-Serif" font-size="14.00">&quot;Masvidal&quot;</text>
<polygon fill="#e6ffe6" stroke="none" points="248,-154 248,-179 274.5,-179 274.5,-154 248,-154"/>
<polygon fill="none" stroke="black" points="248,-154 248,-179 274.5,-179 274.5,-154 248,-154"/>
<text xml:space="preserve" text-anchor="start" x="253" y="-162.75" font-family="Helvetica,sans-Serif" font-size="14.00">+</text>
<polygon fill="#e6ffe6" stroke="none" points="8,-129 8,-154 37.5,-154 37.5,-129 8,-129"/>
<polygon fill="none" stroke="black" points="8,-129 8,-154 37.5,-154 37.5,-129 8,-129"/>
<text xml:space="preserve" text-anchor="start" x="13" y="-137.75" font-family="Helvetica,sans-Serif" font-size="14.00">#1</text>
<polygon fill="#e6ffe6" stroke="none" points="37.5,-129 37.5,-154 151.75,-154 151.75,-129 37.5,-129"/>
<polygon fill="none" stroke="black" points="37.5,-129 37.5,-154 151.75,-154 151.75,-129 37.5,-129"/>
<text xml:space="preserve" text-anchor="start" x="42.5" y="-137.75" font-family="Helvetica,sans-Serif" font-size="14.00">Fighter/nickname</text>
<polygon fill="#e6ffe6" stroke="none" points="151.75,-129 151.75,-154 248,-154 248,-129 151.75,-129"/>
<polygon fill="none" stroke="black" points="151.75,-129 151.75,-154 248,-154 248,-129 151.75,-129"/>
<text xml:space="preserve" text-anchor="start" x="156.75" y="-137.75" font-family="Helvetica,sans-Serif" font-size="14.00">&quot;Street Judas&quot;</text>
<polygon fill="#e6ffe6" stroke="none" points="248,-129 248,-154 274.5,-154 274.5,-129 248,-129"/>
<polygon fill="none" stroke="black" points="248,-129 248,-154 274.5,-154 274.5,-129 248,-129"/>
<text xml:space="preserve" text-anchor="start" x="253" y="-137.75" font-family="Helvetica,sans-Serif" font-size="14.00">+</text>
<polygon fill="#e6ffe6" stroke="none" points="8,-104 8,-129 37.5,-129 37.5,-104 8,-104"/>
<polygon fill="none" stroke="black" points="8,-104 8,-129 37.5,-129 37.5,-104 8,-104"/>
<text xml:space="preserve" text-anchor="start" x="13" y="-112.75" font-family="Helvetica,sans-Serif" font-size="14.00">#2</text>
<polygon fill="#e6ffe6" stroke="none" points="37.5,-104 37.5,-129 151.75,-129 151.75,-104 37.5,-104"/>
<polygon fill="none" stroke="black" points="37.5,-104 37.5,-129 151.75,-129 151.75,-104 37.5,-104"/>
<text xml:space="preserve" text-anchor="start" x="42.5" y="-112.75" font-family="Helvetica,sans-Serif" font-size="14.00">Fighter/fName</text>
<polygon fill="#e6ffe6" stroke="none" points="151.75,-104 151.75,-129 248,-129 248,-104 151.75,-104"/>
<polygon fill="none" stroke="black" points="151.75,-104 151.75,-129 248,-129 248,-104 151.75,-104"/>
<text xml:space="preserve" text-anchor="start" x="156.75" y="-112.75" font-family="Helvetica,sans-Serif" font-size="14.00">&quot;Jet&quot;</text>
<polygon fill="#e6ffe6" stroke="none" points="248,-104 248,-129 274.5,-129 274.5,-104 248,-104"/>
<polygon fill="none" stroke="black" points="248,-104 248,-129 274.5,-129 274.5,-104 248,-104"/>
<text xml:space="preserve" text-anchor="start" x="253" y="-112.75" font-family="Helvetica,sans-Serif" font-size="14.00">+</text>
<polygon fill="#e6ffe6" stroke="none" points="8,-79 8,-104 37.5,-104 37.5,-79 8,-79"/>
<polygon fill="none" stroke="black" points="8,-79 8,-104 37.5,-104 37.5,-79 8,-79"/>
<text xml:space="preserve" text-anchor="start" x="13" y="-87.75" font-family="Helvetica,sans-Serif" font-size="14.00">#2</text>
<polygon fill="#e6ffe6" stroke="none" points="37.5,-79 37.5,-104 151.75,-104 151.75,-79 37.5,-79"/>
<polygon fill="none" stroke="black" points="37.5,-79 37.5,-104 151.75,-104 151.75,-79 37.5,-79"/>
<text xml:space="preserve" text-anchor="start" x="42.5" y="-87.75" font-family="Helvetica,sans-Serif" font-size="14.00">Fighter/lName</text>
<polygon fill="#e6ffe6" stroke="none" points="151.75,-79 151.75,-104 248,-104 248,-79 151.75,-79"/>
<polygon fill="none" stroke="black" points="151.75,-79 151.75,-104 248,-104 248,-79 151.75,-79"/>
<text xml:space="preserve" text-anchor="start" x="156.75" y="-87.75" font-family="Helvetica,sans-Serif" font-size="14.00">&quot;Li&quot;</text>
<polygon fill="#e6ffe6" stroke="none" points="248,-79 248,-104 274.5,-104 274.5,-79 248,-79"/>
<polygon fill="none" stroke="black" points="248,-79 248,-104 274.5,-104 274.5,-79 248,-79"/>
<text xml:space="preserve" text-anchor="start" x="253" y="-87.75" font-family="Helvetica,sans-Serif" font-size="14.00">+</text>
<polygon fill="#ffe0e0" stroke="none" points="8,-54 8,-79 37.5,-79 37.5,-54 8,-54"/>
<polygon fill="none" stroke="black" points="8,-54 8,-79 37.5,-79 37.5,-54 8,-54"/>
<text xml:space="preserve" text-anchor="start" x="13" y="-62.75" font-family="Helvetica,sans-Serif" font-size="14.00">#1</text>
<polygon fill="#ffe0e0" stroke="none" points="37.5,-54 37.5,-79 151.75,-79 151.75,-54 37.5,-54"/>
<polygon fill="none" stroke="black" points="37.5,-54 37.5,-79 151.75,-79 151.75,-54 37.5,-54"/>
<text xml:space="preserve" text-anchor="start" x="42.5" y="-62.75" font-family="Helvetica,sans-Serif" font-size="14.00">Fighter/fName</text>
<polygon fill="#ffe0e0" stroke="none" points="151.75,-54 151.75,-79 248,-79 248,-54 151.75,-54"/>
<polygon fill="none" stroke="black" points="151.75,-54 151.75,-79 248,-79 248,-54 151.75,-54"/>
<text xml:space="preserve" text-anchor="start" x="156.75" y="-62.75" font-family="Helvetica,sans-Serif" font-size="14.00">&quot;Jorge&quot;</text>
<polygon fill="#ffe0e0" stroke="none" points="248,-54 248,-79 274.5,-79 274.5,-54 248,-54"/>
<polygon fill="none" stroke="black" points="248,-54 248,-79 274.5,-79 274.5,-54 248,-54"/>
<text xml:space="preserve" text-anchor="start" x="253" y="-62.75" font-family="Helvetica,sans-Serif" font-size="14.00">−</text>
<polygon fill="#ffe0e0" stroke="none" points="8,-29 8,-54 37.5,-54 37.5,-29 8,-29"/>
<polygon fill="none" stroke="black" points="8,-29 8,-54 37.5,-54 37.5,-29 8,-29"/>
<text xml:space="preserve" text-anchor="start" x="13" y="-37.75" font-family="Helvetica,sans-Serif" font-size="14.00">#1</text>
<polygon fill="#ffe0e0" stroke="none" points="37.5,-29 37.5,-54 151.75,-54 151.75,-29 37.5,-29"/>
<polygon fill="none" stroke="black" points="37.5,-29 37.5,-54 151.75,-54 151.75,-29 37.5,-29"/>
<text xml:space="preserve" text-anchor="start" x="42.5" y="-37.75" font-family="Helvetica,sans-Serif" font-size="14.00">Fighter/lName</text>
<polygon fill="#ffe0e0" stroke="none" points="151.75,-29 151.75,-54 248,-54 248,-29 151.75,-29"/>
<polygon fill="none" stroke="black" points="151.75,-29 151.75,-54 248,-54 248,-29 151.75,-29"/>
<text xml:space="preserve" text-anchor="start" x="156.75" y="-37.75" font-family="Helvetica,sans-Serif" font-size="14.00">&quot;Masvidal&quot;</text>
<polygon fill="#ffe0e0" stroke="none" points="248,-29 248,-54 274.5,-54 274.5,-29 248,-29"/>
<polygon fill="none" stroke="black" points="248,-29 248,-54 274.5,-54 274.5,-29 248,-29"/>
<text xml:space="preserve" text-anchor="start" x="253" y="-37.75" font-family="Helvetica,sans-Serif" font-size="14.00">−</text>
<polygon fill="#ffe0e0" stroke="none" points="8,-4 8,-29 37.5,-29 37.5,-4 8,-4"/>
<polygon fill="none" stroke="black" points="8,-4 8,-29 37.5,-29 37.5,-4 8,-4"/>
<text xml:space="preserve" text-anchor="start" x="13" y="-12.75" font-family="Helvetica,sans-Serif" font-size="14.00">#1</text>
<polygon fill="#ffe0e0" stroke="none" points="37.5,-4 37.5,-29 151.75,-29 151.75,-4 37.5,-4"/>
<polygon fill="none" stroke="black" points="37.5,-4 37.5,-29 151.75,-29 151.75,-4 37.5,-4"/>
<text xml:space="preserve" text-anchor="start" x="42.5" y="-12.75" font-family="Helvetica,sans-Serif" font-size="14.00">Fighter/nickname</text>
<polygon fill="#ffe0e0" stroke="none" points="151.75,-4 151.75,-29 248,-29 248,-4 151.75,-4"/>
<polygon fill="none" stroke="black" points="151.75,-4 151.75,-29 248,-29 248,-4 151.75,-4"/>
<text xml:space="preserve" text-anchor="start" x="156.75" y="-12.75" font-family="Helvetica,sans-Serif" font-size="14.00">&quot;Street Judas&quot;</text>
<polygon fill="#ffe0e0" stroke="none" points="248,-4 248,-29 274.5,-29 274.5,-4 248,-4"/>
<polygon fill="none" stroke="black" points="248,-4 248,-29 274.5,-29 274.5,-4 248,-4"/>
<text xml:space="preserve" text-anchor="start" x="253" y="-12.75" font-family="Helvetica,sans-Serif" font-size="14.00">−</text>
</g>
<!-- live -->
<g id="node2" class="node">
<title>live</title>
<polygon fill="none" stroke="black" points="326.5,-154 326.5,-179 496.75,-179 496.75,-154 326.5,-154"/>
<text xml:space="preserve" text-anchor="start" x="379" y="-161.7" font-family="Helvetica,sans-Serif" font-weight="bold" font-size="14.00">projection</text>
<polygon fill="none" stroke="black" points="326.5,-129 326.5,-154 356,-154 356,-129 326.5,-129"/>
<text xml:space="preserve" text-anchor="start" x="331.5" y="-136.7" font-family="Helvetica,sans-Serif" font-weight="bold" font-size="14.00">eid</text>
<polygon fill="none" stroke="black" points="356,-129 356,-154 452.25,-154 452.25,-129 356,-129"/>
<text xml:space="preserve" text-anchor="start" x="393.25" y="-136.7" font-family="Helvetica,sans-Serif" font-weight="bold" font-size="14.00">attr</text>
<polygon fill="none" stroke="black" points="452.25,-129 452.25,-154 496.75,-154 496.75,-129 452.25,-129"/>
<text xml:space="preserve" text-anchor="start" x="457.25" y="-136.7" font-family="Helvetica,sans-Serif" font-weight="bold" font-size="14.00">value</text>
<polygon fill="none" stroke="black" points="326.5,-104 326.5,-129 356,-129 356,-104 326.5,-104"/>
<text xml:space="preserve" text-anchor="start" x="331.5" y="-112.75" font-family="Helvetica,sans-Serif" font-size="14.00">#2</text>
<polygon fill="none" stroke="black" points="356,-104 356,-129 452.25,-129 452.25,-104 356,-104"/>
<text xml:space="preserve" text-anchor="start" x="361" y="-112.75" font-family="Helvetica,sans-Serif" font-size="14.00">Fighter/fName</text>
<polygon fill="none" stroke="black" points="452.25,-104 452.25,-129 496.75,-129 496.75,-104 452.25,-104"/>
<text xml:space="preserve" text-anchor="start" x="457.25" y="-112.75" font-family="Helvetica,sans-Serif" font-size="14.00">&quot;Jet&quot;</text>
<polygon fill="none" stroke="black" points="326.5,-79 326.5,-104 356,-104 356,-79 326.5,-79"/>
<text xml:space="preserve" text-anchor="start" x="331.5" y="-87.75" font-family="Helvetica,sans-Serif" font-size="14.00">#2</text>
<polygon fill="none" stroke="black" points="356,-79 356,-104 452.25,-104 452.25,-79 356,-79"/>
<text xml:space="preserve" text-anchor="start" x="361" y="-87.75" font-family="Helvetica,sans-Serif" font-size="14.00">Fighter/lName</text>
<polygon fill="none" stroke="black" points="452.25,-79 452.25,-104 496.75,-104 496.75,-79 452.25,-79"/>
<text xml:space="preserve" text-anchor="start" x="457.25" y="-87.75" font-family="Helvetica,sans-Serif" font-size="14.00">&quot;Li&quot;</text>
</g>
<!-- log&#45;&gt;live -->
<g id="edge1" class="edge">
<title>log&#45;&gt;live</title>
<path fill="none" stroke="black" d="M282.33,-129C290.71,-129 299.06,-129 307.25,-129"/>
<polygon fill="black" stroke="black" points="307.19,-132.5 317.19,-129 307.19,-125.5 307.19,-132.5"/>
</g>
</g>
</svg>
