<?xml version="1.0" encoding="UTF-8" standalone="no"?>
<!DOCTYPE svg PUBLIC "-//W3C//DTD SVG 1.1//EN"
 "http://www.w3.org/Graphics/SVG/1.1/DTD/svg11.dtd">
<!-- Generated by graphviz version 14.1.4 (20260321.0153)
 -->
<!-- Title: issue_log_and_live_t2 Pages: 1 -->
<svg width="748pt" height="316pt"
 viewBox="0.00 0.00 748.00 316.00" xmlns="http://www.w3.org/2000/svg" xmlns:xlink="http://www.w3.org/1999/xlink">
<g id="graph0" class="graph" transform="scale(1 1) rotate(0) translate(4 312)">
<title>issue_log_and_live_t2</title>
<polygon fill="white" stroke="none" points="-4,4 -4,-312 743.75,-312 743.75,4 -4,4"/>
<!-- log -->
<g id="node1" class="node">
<title>log</title>
<polygon fill="none" stroke="black" points="8,-279 8,-304 357.25,-304 357.25,-279 8,-279"/>
<text xml:space="preserve" text-anchor="start" x="172.5" y="-286.7" font-family="Helvetica,sans-Serif" font-weight="bold" font-size="14.00">log</text>
<polygon fill="none" stroke="black" points="8,-254 8,-279 30,-279 30,-254 8,-254"/>
<text xml:space="preserve" text-anchor="start" x="13" y="-261.7" font-family="Helvetica,sans-Serif" font-weight="bold" font-size="14.00">tx</text>
<polygon fill="none" stroke="black" points="30,-254 30,-279 59.5,-279 59.5,-254 30,-254"/>
<text xml:space="preserve" text-anchor="start" x="35" y="-261.7" font-family="Helvetica,sans-Serif" font-weight="bold" font-size="14.00">eid</text>
<polygon fill="none" stroke="black" points="59.5,-254 59.5,-279 159.5,-279 159.5,-254 59.5,-254"/>
<text xml:space="preserve" text-anchor="start" x="98.62" y="-261.7" font-family="Helvetica,sans-Serif" font-weight="bold" font-size="14.00">attr</text>
<polygon fill="none" stroke="black" points="159.5,-254 159.5,-279 330.75,-279 330.75,-254 159.5,-254"/>
<text xml:space="preserve" text-anchor="start" x="227.88" y="-261.7" font-family="Helvetica,sans-Serif" font-weight="bold" font-size="14.00">value</text>
<polygon fill="none" stroke="black" points="330.75,-254 330.75,-279 357.25,-279 357.25,-254 330.75,-254"/>
<text xml:space="preserve" text-anchor="start" x="335.75" y="-261.7" font-family="Helvetica,sans-Serif" font-weight="bold" font-size="14.00">op</text>
<polygon fill="#e6ffe6" stroke="none" points="8,-229 8,-254 30,-254 30,-229 8,-229"/>
<polygon fill="none" stroke="black" points="8,-229 8,-254 30,-254 30,-229 8,-229"/>
<text xml:space="preserve" text-anchor="start" x="13" y="-237.75" font-family="Helvetica,sans-Serif" font-size="14.00">t0</text>
<polygon fill="#e6ffe6" stroke="none" points="30,-229 30,-254 59.5,-254 59.5,-229 30,-229"/>
<polygon fill="none" stroke="black" points="30,-229 30,-254 59.5,-254 59.5,-229 30,-229"/>
<text xml:space="preserve" text-anchor="start" x="35" y="-237.75" font-family="Helvetica,sans-Serif" font-size="14.00">#1</text>
<polygon fill="#e6ffe6" stroke="none" points="59.5,-229 59.5,-254 159.5,-254 159.5,-229 59.5,-229"/>
<polygon fill="none" stroke="black" points="59.5,-229 59.5,-254 159.5,-254 159.5,-229 59.5,-229"/>
<text xml:space="preserve" text-anchor="start" x="64.5" y="-237.75" font-family="Helvetica,sans-Serif" font-size="14.00">User/email</text>
<polygon fill="#e6ffe6" stroke="none" points="159.5,-229 159.5,-254 330.75,-254 330.75,-229 159.5,-229"/>
<polygon fill="none" stroke="black" points="159.5,-229 159.5,-254 330.75,-254 330.75,-229 159.5,-229"/>
<text xml:space="preserve" text-anchor="start" x="164.5" y="-237.75" font-family="Helvetica,sans-Serif" font-size="14.00">&quot;m@x.io&quot;</text>
<polygon fill="#e6ffe6" stroke="none" points="330.75,-229 330.75,-254 357.25,-254 357.25,-229 330.75,-229"/>
<polygon fill="none" stroke="black" points="330.75,-229 330.75,-254 357.25,-254 357.25,-229 330.75,-229"/>
<text xml:space="preserve" text-anchor="start" x="335.75" y="-237.75" font-family="Helvetica,sans-Serif" font-size="14.00">+</text>
<polygon fill="#e6ffe6" stroke="none" points="8,-204 8,-229 30,-229 30,-204 8,-204"/>
<polygon fill="none" stroke="black" points="8,-204 8,-229 30,-229 30,-204 8,-204"/>
<text xml:space="preserve" text-anchor="start" x="13" y="-212.75" font-family="Helvetica,sans-Serif" font-size="14.00">t0</text>
<polygon fill="#e6ffe6" stroke="none" points="30,-204 30,-229 59.5,-229 59.5,-204 30,-204"/>
<polygon fill="none" stroke="black" points="30,-204 30,-229 59.5,-229 59.5,-204 30,-204"/>
<text xml:space="preserve" text-anchor="start" x="35" y="-212.75" font-family="Helvetica,sans-Serif" font-size="14.00">#1</text>
<polygon fill="#e6ffe6" stroke="none" points="59.5,-204 59.5,-229 159.5,-229 159.5,-204 59.5,-204"/>
<polygon fill="none" stroke="black" points="59.5,-204 59.5,-229 159.5,-229 159.5,-204 59.5,-204"/>
<text xml:space="preserve" text-anchor="start" x="64.5" y="-212.75" font-family="Helvetica,sans-Serif" font-size="14.00">User/name</text>
<polygon fill="#e6ffe6" stroke="none" points="159.5,-204 159.5,-229 330.75,-229 330.75,-204 159.5,-204"/>
<polygon fill="none" stroke="black" points="159.5,-204 159.5,-229 330.75,-229 330.75,-204 159.5,-204"/>
<text xml:space="preserve" text-anchor="start" x="164.5" y="-212.75" font-family="Helvetica,sans-Serif" font-size="14.00">&quot;Matt&quot;</text>
<polygon fill="#e6ffe6" stroke="none" points="330.75,-204 330.75,-229 357.25,-229 357.25,-204 330.75,-204"/>
<polygon fill="none" stroke="black" points="330.75,-204 330.75,-229 357.25,-229 357.25,-204 330.75,-204"/>
<text xml:space="preserve" text-anchor="start" x="335.75" y="-212.75" font-family="Helvetica,sans-Serif" font-size="14.00">+</text>
<polygon fill="#e6ffe6" stroke="none" points="8,-179 8,-204 30,-204 30,-179 8,-179"/>
<polygon fill="none" stroke="black" points="8,-179 8,-204 30,-204 30,-179 8,-179"/>
<text xml:space="preserve" text-anchor="start" x="13" y="-187.75" font-family="Helvetica,sans-Serif" font-size="14.00">t0</text>
<polygon fill="#e6ffe6" stroke="none" points="30,-179 30,-204 59.5,-204 59.5,-179 30,-179"/>
<polygon fill="none" stroke="black" points="30,-179 30,-204 59.5,-204 59.5,-179 30,-179"/>
<text xml:space="preserve" text-anchor="start" x="35" y="-187.75" font-family="Helvetica,sans-Serif" font-size="14.00">#2</text>
<polygon fill="#e6ffe6" stroke="none" points="59.5,-179 59.5,-204 159.5,-204 159.5,-179 59.5,-179"/>
<polygon fill="none" stroke="black" points="59.5,-179 59.5,-204 159.5,-204 159.5,-179 59.5,-179"/>
<text xml:space="preserve" text-anchor="start" x="64.5" y="-187.75" font-family="Helvetica,sans-Serif" font-size="14.00">User/email</text>
<polygon fill="#e6ffe6" stroke="none" points="159.5,-179 159.5,-204 330.75,-204 330.75,-179 159.5,-179"/>
<polygon fill="none" stroke="black" points="159.5,-179 159.5,-204 330.75,-204 330.75,-179 159.5,-179"/>
<text xml:space="preserve" text-anchor="start" x="164.5" y="-187.75" font-family="Helvetica,sans-Serif" font-size="14.00">&quot;a@x.io&quot;</text>
<polygon fill="#e6ffe6" stroke="none" points="330.75,-179 330.75,-204 357.25,-204 357.25,-179 330.75,-179"/>
<polygon fill="none" stroke="black" points="330.75,-179 330.75,-204 357.25,-204 357.25,-179 330.75,-179"/>
<text xml:space="preserve" text-anchor="start" x="335.75" y="-187.75" font-family="Helvetica,sans-Serif" font-size="14.00">+</text>
<polygon fill="#e6ffe6" stroke="none" points="8,-154 8,-179 30,-179 30,-154 8,-154"/>
<polygon fill="none" stroke="black" points="8,-154 8,-179 30,-179 30,-154 8,-154"/>
<text xml:space="preserve" text-anchor="start" x="13" y="-162.75" font-family="Helvetica,sans-Serif" font-size="14.00">t0</text>
<polygon fill="#e6ffe6" stroke="none" points="30,-154 30,-179 59.5,-179 59.5,-154 30,-154"/>
<polygon fill="none" stroke="black" points="30,-154 30,-179 59.5,-179 59.5,-154 30,-154"/>
<text xml:space="preserve" text-anchor="start" x="35" y="-162.75" font-family="Helvetica,sans-Serif" font-size="14.00">#2</text>
<polygon fill="#e6ffe6" stroke="none" points="59.5,-154 59.5,-179 159.5,-179 159.5,-154 59.5,-154"/>
<polygon fill="none" stroke="black" points="59.5,-154 59.5,-179 159.5,-179 159.5,-154 59.5,-154"/>
<text xml:space="preserve" text-anchor="start" x="64.5" y="-162.75" font-family="Helvetica,sans-Serif" font-size="14.00">User/name</text>
<polygon fill="#e6ffe6" stroke="none" points="159.5,-154 159.5,-179 330.75,-179 330.75,-154 159.5,-154"/>
<polygon fill="none" stroke="black" points="159.5,-154 159.5,-179 330.75,-179 330.75,-154 159.5,-154"/>
<text xml:space="preserve" text-anchor="start" x="164.5" y="-162.75" font-family="Helvetica,sans-Serif" font-size="14.00">&quot;Alice&quot;</text>
<polygon fill="#e6ffe6" stroke="none" points="330.75,-154 330.75,-179 357.25,-179 357.25,-154 330.75,-154"/>
<polygon fill="none" stroke="black" points="330.75,-154 330.75,-179 357.25,-179 357.25,-154 330.75,-154"/>
<text xml:space="preserve" text-anchor="start" x="335.75" y="-162.75" font-family="Helvetica,sans-Serif" font-size="14.00">+</text>
<polygon fill="#e6ffe6" stroke="none" points="8,-129 8,-154 30,-154 30,-129 8,-129"/>
<polygon fill="none" stroke="black" points="8,-129 8,-154 30,-154 30,-129 8,-129"/>
<text xml:space="preserve" text-anchor="start" x="13" y="-137.75" font-family="Helvetica,sans-Serif" font-size="14.00">t1</text>
<polygon fill="#e6ffe6" stroke="none" points="30,-129 30,-154 59.5,-154 59.5,-129 30,-129"/>
<polygon fill="none" stroke="black" points="30,-129 30,-154 59.5,-154 59.5,-129 30,-129"/>
<text xml:space="preserve" text-anchor="start" x="35" y="-137.75" font-family="Helvetica,sans-Serif" font-size="14.00">#3</text>
<polygon fill="#e6ffe6" stroke="none" points="59.5,-129 59.5,-154 159.5,-154 159.5,-129 59.5,-129"/>
<polygon fill="none" stroke="black" points="59.5,-129 59.5,-154 159.5,-154 159.5,-129 59.5,-129"/>
<text xml:space="preserve" text-anchor="start" x="64.5" y="-137.75" font-family="Helvetica,sans-Serif" font-size="14.00">Issue/id</text>
<polygon fill="#e6ffe6" stroke="none" points="159.5,-129 159.5,-154 330.75,-154 330.75,-129 159.5,-129"/>
<polygon fill="none" stroke="black" points="159.5,-129 159.5,-154 330.75,-154 330.75,-129 159.5,-129"/>
<text xml:space="preserve" text-anchor="start" x="164.5" y="-137.75" font-family="Helvetica,sans-Serif" font-size="14.00">&quot;BUG&#45;1&quot;</text>
<polygon fill="#e6ffe6" stroke="none" points="330.75,-129 330.75,-154 357.25,-154 357.25,-129 330.75,-129"/>
<polygon fill="none" stroke="black" points="330.75,-129 330.75,-154 357.25,-154 357.25,-129 330.75,-129"/>
<text xml:space="preserve" text-anchor="start" x="335.75" y="-137.75" font-family="Helvetica,sans-Serif" font-size="14.00">+</text>
<polygon fill="#e6ffe6" stroke="none" points="8,-104 8,-129 30,-129 30,-104 8,-104"/>
<polygon fill="none" stroke="black" points="8,-104 8,-129 30,-129 30,-104 8,-104"/>
<text xml:space="preserve" text-anchor="start" x="13" y="-112.75" font-family="Helvetica,sans-Serif" font-size="14.00">t1</text>
<polygon fill="#e6ffe6" stroke="none" points="30,-104 30,-129 59.5,-129 59.5,-104 30,-104"/>
<polygon fill="none" stroke="black" points="30,-104 30,-129 59.5,-129 59.5,-104 30,-104"/>
<text xml:space="preserve" text-anchor="start" x="35" y="-112.75" font-family="Helvetica,sans-Serif" font-size="14.00">#3</text>
<polygon fill="#e6ffe6" stroke="none" points="59.5,-104 59.5,-129 159.5,-129 159.5,-104 59.5,-104"/>
<polygon fill="none" stroke="black" points="59.5,-104 59.5,-129 159.5,-129 159.5,-104 59.5,-104"/>
<text xml:space="preserve" text-anchor="start" x="64.5" y="-112.75" font-family="Helvetica,sans-Serif" font-size="14.00">Issue/title</text>
<polygon fill="#e6ffe6" stroke="none" points="159.5,-104 159.5,-129 330.75,-129 330.75,-104 159.5,-104"/>
<polygon fill="none" stroke="black" points="159.5,-104 159.5,-129 330.75,-129 330.75,-104 159.5,-104"/>
<text xml:space="preserve" text-anchor="start" x="164.5" y="-112.75" font-family="Helvetica,sans-Serif" font-size="14.00">&quot;login button does nothing&quot;</text>
<polygon fill="#e6ffe6" stroke="none" points="330.75,-104 330.75,-129 357.25,-129 357.25,-104 330.75,-104"/>
<polygon fill="none" stroke="black" points="330.75,-104 330.75,-129 357.25,-129 357.25,-104 330.75,-104"/>
<text xml:space="preserve" text-anchor="start" x="335.75" y="-112.75" font-family="Helvetica,sans-Serif" font-size="14.00">+</text>
<polygon fill="#e6ffe6" stroke="none" points="8,-79 8,-104 30,-104 30,-79 8,-79"/>
<polygon fill="none" stroke="black" points="8,-79 8,-104 30,-104 30,-79 8,-79"/>
<text xml:space="preserve" text-anchor="start" x="13" y="-87.75" font-family="Helvetica,sans-Serif" font-size="14.00">t1</text>
<polygon fill="#e6ffe6" stroke="none" points="30,-79 30,-104 59.5,-104 59.5,-79 30,-79"/>
<polygon fill="none" stroke="black" points="30,-79 30,-104 59.5,-104 59.5,-79 30,-79"/>
<text xml:space="preserve" text-anchor="start" x="35" y="-87.75" font-family="Helvetica,sans-Serif" font-size="14.00">#3</text>
<polygon fill="#e6ffe6" stroke="none" points="59.5,-79 59.5,-104 159.5,-104 159.5,-79 59.5,-79"/>
<polygon fill="none" stroke="black" points="59.5,-79 59.5,-104 159.5,-104 159.5,-79 59.5,-79"/>
<text xml:space="preserve" text-anchor="start" x="64.5" y="-87.75" font-family="Helvetica,sans-Serif" font-size="14.00">Issue/status</text>
<polygon fill="#e6ffe6" stroke="none" points="159.5,-79 159.5,-104 330.75,-104 330.75,-79 159.5,-79"/>
<polygon fill="none" stroke="black" points="159.5,-79 159.5,-104 330.75,-104 330.75,-79 159.5,-79"/>
<text xml:space="preserve" text-anchor="start" x="164.5" y="-87.75" font-family="Helvetica,sans-Serif" font-size="14.00">&quot;open&quot;</text>
<polygon fill="#e6ffe6" stroke="none" points="330.75,-79 330.75,-104 357.25,-104 357.25,-79 330.75,-79"/>
<polygon fill="none" stroke="black" points="330.75,-79 330.75,-104 357.25,-104 357.25,-79 330.75,-79"/>
<text xml:space="preserve" text-anchor="start" x="335.75" y="-87.75" font-family="Helvetica,sans-Serif" font-size="14.00">+</text>
<polygon fill="#e6ffe6" stroke="none" points="8,-54 8,-79 30,-79 30,-54 8,-54"/>
<polygon fill="none" stroke="black" points="8,-54 8,-79 30,-79 30,-54 8,-54"/>
<text xml:space="preserve" text-anchor="start" x="13" y="-62.75" font-family="Helvetica,sans-Serif" font-size="14.00">t1</text>
<polygon fill="#e6ffe6" stroke="none" points="30,-54 30,-79 59.5,-79 59.5,-54 30,-54"/>
<polygon fill="none" stroke="black" points="30,-54 30,-79 59.5,-79 59.5,-54 30,-54"/>
<text xml:space="preserve" text-anchor="start" x="35" y="-62.75" font-family="Helvetica,sans-Serif" font-size="14.00">#3</text>
<polygon fill="#e6ffe6" stroke="none" points="59.5,-54 59.5,-79 159.5,-79 159.5,-54 59.5,-54"/>
<polygon fill="none" stroke="black" points="59.5,-54 59.5,-79 159.5,-79 159.5,-54 59.5,-54"/>
<text xml:space="preserve" text-anchor="start" x="64.5" y="-62.75" font-family="Helvetica,sans-Serif" font-size="14.00">Issue/labels</text>
<polygon fill="#e6ffe6" stroke="none" points="159.5,-54 159.5,-79 330.75,-79 330.75,-54 159.5,-54"/>
<polygon fill="none" stroke="black" points="159.5,-54 159.5,-79 330.75,-79 330.75,-54 159.5,-54"/>
<text xml:space="preserve" text-anchor="start" x="164.5" y="-62.75" font-family="Helvetica,sans-Serif" font-size="14.00">&quot;bug&quot;</text>
<polygon fill="#e6ffe6" stroke="none" points="330.75,-54 330.75,-79 357.25,-79 357.25,-54 330.75,-54"/>
<polygon fill="none" stroke="black" points="330.75,-54 330.75,-79 357.25,-79 357.25,-54 330.75,-54"/>
<text xml:space="preserve" text-anchor="start" x="335.75" y="-62.75" font-family="Helvetica,sans-Serif" font-size="14.00">+</text>
<polygon fill="#e6ffe6" stroke="none" points="8,-29 8,-54 30,-54 30,-29 8,-29"/>
<polygon fill="none" stroke="black" points="8,-29 8,-54 30,-54 30,-29 8,-29"/>
<text xml:space="preserve" text-anchor="start" x="13" y="-37.75" font-family="Helvetica,sans-Serif" font-size="14.00">t2</text>
<polygon fill="#e6ffe6" stroke="none" points="30,-29 30,-54 59.5,-54 59.5,-29 30,-29"/>
<polygon fill="none" stroke="black" points="30,-29 30,-54 59.5,-54 59.5,-29 30,-29"/>
<text xml:space="preserve" text-anchor="start" x="35" y="-37.75" font-family="Helvetica,sans-Serif" font-size="14.00">#3</text>
<polygon fill="#e6ffe6" stroke="none" points="59.5,-29 59.5,-54 159.5,-54 159.5,-29 59.5,-29"/>
<polygon fill="none" stroke="black" points="59.5,-29 59.5,-54 159.5,-54 159.5,-29 59.5,-29"/>
<text xml:space="preserve" text-anchor="start" x="64.5" y="-37.75" font-family="Helvetica,sans-Serif" font-size="14.00">Issue/assignee</text>
<polygon fill="#e6ffe6" stroke="none" points="159.5,-29 159.5,-54 330.75,-54 330.75,-29 159.5,-29"/>
<polygon fill="none" stroke="black" points="159.5,-29 159.5,-54 330.75,-54 330.75,-29 159.5,-29"/>
<text xml:space="preserve" text-anchor="start" x="164.5" y="-37.75" font-family="Helvetica,sans-Serif" font-size="14.00">#2</text>
<polygon fill="#e6ffe6" stroke="none" points="330.75,-29 330.75,-54 357.25,-54 357.25,-29 330.75,-29"/>
<polygon fill="none" stroke="black" points="330.75,-29 330.75,-54 357.25,-54 357.25,-29 330.75,-29"/>
<text xml:space="preserve" text-anchor="start" x="335.75" y="-37.75" font-family="Helvetica,sans-Serif" font-size="14.00">+</text>
<polygon fill="#e6ffe6" stroke="none" points="8,-4 8,-29 30,-29 30,-4 8,-4"/>
<polygon fill="none" stroke="black" points="8,-4 8,-29 30,-29 30,-4 8,-4"/>
<text xml:space="preserve" text-anchor="start" x="13" y="-12.75" font-family="Helvetica,sans-Serif" font-size="14.00">t2</text>
<polygon fill="#e6ffe6" stroke="none" points="30,-4 30,-29 59.5,-29 59.5,-4 30,-4"/>
<polygon fill="none" stroke="black" points="30,-4 30,-29 59.5,-29 59.5,-4 30,-4"/>
<text xml:space="preserve" text-anchor="start" x="35" y="-12.75" font-family="Helvetica,sans-Serif" font-size="14.00">#3</text>
<polygon fill="#e6ffe6" stroke="none" points="59.5,-4 59.5,-29 159.5,-29 159.5,-4 59.5,-4"/>
<polygon fill="none" stroke="black" points="59.5,-4 59.5,-29 159.5,-29 159.5,-4 59.5,-4"/>
<text xml:space="preserve" text-anchor="start" x="64.5" y="-12.75" font-family="Helvetica,sans-Serif" font-size="14.00">Issue/labels</text>
<polygon fill="#e6ffe6" stroke="none" points="159.5,-4 159.5,-29 330.75,-29 330.75,-4 159.5,-4"/>
<polygon fill="none" stroke="black" points="159.5,-4 159.5,-29 330.75,-29 330.75,-4 159.5,-4"/>
<text xml:space="preserve" text-anchor="start" x="164.5" y="-12.75" font-family="Helvetica,sans-Serif" font-size="14.00">&quot;p1&quot;</text>
<polygon fill="#e6ffe6" stroke="none" points="330.75,-4 330.75,-29 357.25,-29 357.25,-4 330.75,-4"/>
<polygon fill="none" stroke="black" points="330.75,-4 330.75,-29 357.25,-29 357.25,-4 330.75,-4"/>
<text xml:space="preserve" text-anchor="start" x="335.75" y="-12.75" font-family="Helvetica,sans-Serif" font-size="14.00">+</text>
</g>
<!-- live -->
<g id="node2" class="node">
<title>live</title>
<polygon fill="none" stroke="black" points="431,-279 431,-304 731.75,-304 731.75,-279 431,-279"/>
<text xml:space="preserve" text-anchor="start" x="519.88" y="-286.7" font-family="Helvetica,sans-Serif" font-weight="bold" font-size="14.00">live projection at t2</text>
<polygon fill="none" stroke="black" points="431,-254 431,-279 460.5,-279 460.5,-254 431,-254"/>
<text xml:space="preserve" text-anchor="start" x="436" y="-261.7" font-family="Helvetica,sans-Serif" font-weight="bold" font-size="14.00">eid</text>
<polygon fill="none" stroke="black" points="460.5,-254 460.5,-279 560.5,-279 560.5,-254 460.5,-254"/>
<text xml:space="preserve" text-anchor="start" x="499.62" y="-261.7" font-family="Helvetica,sans-Serif" font-weight="bold" font-size="14.00">attr</text>
<polygon fill="none" stroke="black" points="560.5,-254 560.5,-279 731.75,-279 731.75,-254 560.5,-254"/>
<text xml:space="preserve" text-anchor="start" x="628.88" y="-261.7" font-family="Helvetica,sans-Serif" font-weight="bold" font-size="14.00">value</text>
<polygon fill="none" stroke="black" points="431,-229 431,-254 460.5,-254 460.5,-229 431,-229"/>
<text xml:space="preserve" text-anchor="start" x="436" y="-237.75" font-family="Helvetica,sans-Serif" font-size="14.00">#1</text>
<polygon fill="none" stroke="black" points="460.5,-229 460.5,-254 560.5,-254 560.5,-229 460.5,-229"/>
<text xml:space="preserve" text-anchor="start" x="465.5" y="-237.75" font-family="Helvetica,sans-Serif" font-size="14.00">User/email</text>
<polygon fill="none" stroke="black" points="560.5,-229 560.5,-254 731.75,-254 731.75,-229 560.5,-229"/>
<text xml:space="preserve" text-anchor="start" x="565.5" y="-237.75" font-family="Helvetica,sans-Serif" font-size="14.00">&quot;m@x.io&quot;</text>
<polygon fill="none" stroke="black" points="431,-204 431,-229 460.5,-229 460.5,-204 431,-204"/>
<text xml:space="preserve" text-anchor="start" x="436" y="-212.75" font-family="Helvetica,sans-Serif" font-size="14.00">#1</text>
<polygon fill="none" stroke="black" points="460.5,-204 460.5,-229 560.5,-229 560.5,-204 460.5,-204"/>
<text xml:space="preserve" text-anchor="start" x="465.5" y="-212.75" font-family="Helvetica,sans-Serif" font-size="14.00">User/name</text>
<polygon fill="none" stroke="black" points="560.5,-204 560.5,-229 731.75,-229 731.75,-204 560.5,-204"/>
<text xml:space="preserve" text-anchor="start" x="565.5" y="-212.75" font-family="Helvetica,sans-Serif" font-size="14.00">&quot;Matt&quot;</text>
<polygon fill="none" stroke="black" points="431,-179 431,-204 460.5,-204 460.5,-179 431,-179"/>
<text xml:space="preserve" text-anchor="start" x="436" y="-187.75" font-family="Helvetica,sans-Serif" font-size="14.00">#2</text>
<polygon fill="none" stroke="black" points="460.5,-179 460.5,-204 560.5,-204 560.5,-179 460.5,-179"/>
<text xml:space="preserve" text-anchor="start" x="465.5" y="-187.75" font-family="Helvetica,sans-Serif" font-size="14.00">User/email</text>
<polygon fill="none" stroke="black" points="560.5,-179 560.5,-204 731.75,-204 731.75,-179 560.5,-179"/>
<text xml:space="preserve" text-anchor="start" x="565.5" y="-187.75" font-family="Helvetica,sans-Serif" font-size="14.00">&quot;a@x.io&quot;</text>
<polygon fill="none" stroke="black" points="431,-154 431,-179 460.5,-179 460.5,-154 431,-154"/>
<text xml:space="preserve" text-anchor="start" x="436" y="-162.75" font-family="Helvetica,sans-Serif" font-size="14.00">#2</text>
<polygon fill="none" stroke="black" points="460.5,-154 460.5,-179 560.5,-179 560.5,-154 460.5,-154"/>
<text xml:space="preserve" text-anchor="start" x="465.5" y="-162.75" font-family="Helvetica,sans-Serif" font-size="14.00">User/name</text>
<polygon fill="none" stroke="black" points="560.5,-154 560.5,-179 731.75,-179 731.75,-154 560.5,-154"/>
<text xml:space="preserve" text-anchor="start" x="565.5" y="-162.75" font-family="Helvetica,sans-Serif" font-size="14.00">&quot;Alice&quot;</text>
<polygon fill="none" stroke="black" points="431,-129 431,-154 460.5,-154 460.5,-129 431,-129"/>
<text xml:space="preserve" text-anchor="start" x="436" y="-137.75" font-family="Helvetica,sans-Serif" font-size="14.00">#3</text>
<polygon fill="none" stroke="black" points="460.5,-129 460.5,-154 560.5,-154 560.5,-129 460.5,-129"/>
<text xml:space="preserve" text-anchor="start" x="465.5" y="-137.75" font-family="Helvetica,sans-Serif" font-size="14.00">Issue/id</text>
<polygon fill="none" stroke="black" points="560.5,-129 560.5,-154 731.75,-154 731.75,-129 560.5,-129"/>
<text xml:space="preserve" text-anchor="start" x="565.5" y="-137.75" font-family="Helvetica,sans-Serif" font-size="14.00">&quot;BUG&#45;1&quot;</text>
<polygon fill="none" stroke="black" points="431,-104 431,-129 460.5,-129 460.5,-104 431,-104"/>
<text xml:space="preserve" text-anchor="start" x="436" y="-112.75" font-family="Helvetica,sans-Serif" font-size="14.00">#3</text>
<polygon fill="none" stroke="black" points="460.5,-104 460.5,-129 560.5,-129 560.5,-104 460.5,-104"/>
<text xml:space="preserve" text-anchor="start" x="465.5" y="-112.75" font-family="Helvetica,sans-Serif" font-size="14.00">Issue/title</text>
<polygon fill="none" stroke="black" points="560.5,-104 560.5,-129 731.75,-129 731.75,-104 560.5,-104"/>
<text xml:space="preserve" text-anchor="start" x="565.5" y="-112.75" font-family="Helvetica,sans-Serif" font-size="14.00">&quot;login button does nothing&quot;</text>
<polygon fill="none" stroke="black" points="431,-79 431,-104 460.5,-104 460.5,-79 431,-79"/>
<text xml:space="preserve" text-anchor="start" x="436" y="-87.75" font-family="Helvetica,sans-Serif" font-size="14.00">#3</text>
<polygon fill="none" stroke="black" points="460.5,-79 460.5,-104 560.5,-104 560.5,-79 460.5,-79"/>
<text xml:space="preserve" text-anchor="start" x="465.5" y="-87.75" font-family="Helvetica,sans-Serif" font-size="14.00">Issue/status</text>
<polygon fill="none" stroke="black" points="560.5,-79 560.5,-104 731.75,-104 731.75,-79 560.5,-79"/>
<text xml:space="preserve" text-anchor="start" x="565.5" y="-87.75" font-family="Helvetica,sans-Serif" font-size="14.00">&quot;open&quot;</text>
<polygon fill="none" stroke="black" points="431,-54 431,-79 460.5,-79 460.5,-54 431,-54"/>
<text xml:space="preserve" text-anchor="start" x="436" y="-62.75" font-family="Helvetica,sans-Serif" font-size="14.00">#3</text>
<polygon fill="none" stroke="black" points="460.5,-54 460.5,-79 560.5,-79 560.5,-54 460.5,-54"/>
<text xml:space="preserve" text-anchor="start" x="465.5" y="-62.75" font-family="Helvetica,sans-Serif" font-size="14.00">Issue/assignee</text>
<polygon fill="none" stroke="black" points="560.5,-54 560.5,-79 731.75,-79 731.75,-54 560.5,-54"/>
<text xml:space="preserve" text-anchor="start" x="565.5" y="-62.75" font-family="Helvetica,sans-Serif" font-size="14.00">#2</text>
<polygon fill="none" stroke="black" points="431,-29 431,-54 460.5,-54 460.5,-29 431,-29"/>
<text xml:space="preserve" text-anchor="start" x="436" y="-37.75" font-family="Helvetica,sans-Serif" font-size="14.00">#3</text>
<polygon fill="none" stroke="black" points="460.5,-29 460.5,-54 560.5,-54 560.5,-29 460.5,-29"/>
<text xml:space="preserve" text-anchor="start" x="465.5" y="-37.75" font-family="Helvetica,sans-Serif" font-size="14.00">Issue/labels</text>
<polygon fill="none" stroke="black" points="560.5,-29 560.5,-54 731.75,-54 731.75,-29 560.5,-29"/>
<text xml:space="preserve" text-anchor="start" x="565.5" y="-37.75" font-family="Helvetica,sans-Serif" font-size="14.00">&quot;bug&quot;</text>
<polygon fill="none" stroke="black" points="431,-4 431,-29 460.5,-29 460.5,-4 431,-4"/>
<text xml:space="preserve" text-anchor="start" x="436" y="-12.75" font-family="Helvetica,sans-Serif" font-size="14.00">#3</text>
<polygon fill="none" stroke="black" points="460.5,-4 460.5,-29 560.5,-29 560.5,-4 460.5,-4"/>
<text xml:space="preserve" text-anchor="start" x="465.5" y="-12.75" font-family="Helvetica,sans-Serif" font-size="14.00">Issue/labels</text>
<polygon fill="none" stroke="black" points="560.5,-4 560.5,-29 731.75,-29 731.75,-4 560.5,-4"/>
<text xml:space="preserve" text-anchor="start" x="565.5" y="-12.75" font-family="Helvetica,sans-Serif" font-size="14.00">&quot;p1&quot;</text>
</g>
<!-- log&#45;&gt;live -->
<g id="edge1" class="edge">
<title>log&#45;&gt;live</title>
<path fill="none" stroke="black" d="M365.16,-154C380.76,-154 396.5,-154 411.99,-154"/>
<polygon fill="black" stroke="black" points="411.7,-157.5 421.7,-154 411.7,-150.5 411.7,-157.5"/>
<text xml:space="preserve" text-anchor="middle" x="394.12" y="-157.2" font-family="Times,serif" font-size="14.00">fold</text>
</g>
</g>
</svg>
